<?xml version="1.0" standalone="no"?>
<!DOCTYPE svg PUBLIC "-//W3C//DTD SVG 20010904//EN"
 "http://www.w3.org/TR/2001/REC-SVG-20010904/DTD/svg10.dtd">
<svg version="1.0" xmlns="http://www.w3.org/2000/svg"
 width="1346.000000pt" height="1346.000000pt" viewBox="0 0 1346.000000 1346.000000"
 preserveAspectRatio="xMidYMid meet">
<metadata>
Created by potrace 1.14, written by Peter Selinger 2001-2017
</metadata>
<g transform="translate(0.000000,1346.000000) scale(0.100000,-0.100000)"
fill="#000000" stroke="none">
<path d="M9739 10345 c-2 -1 -53 -6 -114 -10 -60 -3 -121 -8 -135 -10 -25 -4
-83 -12 -155 -21 -82 -10 -223 -35 -310 -54 -49 -11 -99 -22 -110 -24 -42 -8
-208 -57 -326 -97 -427 -141 -838 -373 -1179 -664 -75 -64 -330 -325 -397
-405 -167 -203 -326 -446 -445 -682 -57 -112 -62 -120 -72 -97 -6 13 -30 67
-54 119 -24 52 -48 104 -52 115 -4 11 -76 171 -160 355 -182 402 -156 344
-330 730 -78 173 -151 335 -163 360 -11 25 -41 92 -67 150 l-47 105 -757 3
-757 2 -21 -47 c-36 -83 -279 -625 -309 -691 -16 -35 -29 -65 -29 -67 0 -3
-15 -37 -34 -77 -51 -110 -76 -166 -76 -171 0 -3 -20 -47 -44 -98 -24 -52 -76
-168 -116 -259 -40 -91 -86 -194 -102 -230 -33 -71 -180 -400 -345 -770 -58
-129 -115 -257 -128 -285 -13 -27 -193 -430 -400 -895 -207 -465 -385 -863
-395 -885 -10 -22 -57 -128 -105 -235 -48 -107 -95 -213 -105 -235 -10 -22
-48 -107 -85 -190 -37 -82 -75 -168 -85 -191 -10 -22 -67 -148 -125 -280 -59
-131 -118 -264 -132 -294 -14 -30 -89 -199 -168 -375 -78 -176 -152 -340 -163
-365 -96 -208 -300 -675 -297 -679 2 -5 5187 -6 5278 -2 16 1 17 38 17 621 l0
620 -1625 0 -1624 0 35 82 c19 45 41 96 49 112 20 45 76 174 135 311 28 66 60
138 70 160 10 22 39 90 65 150 26 61 55 128 65 150 10 22 89 202 175 400 86
198 163 374 170 390 8 17 147 336 310 710 163 374 302 694 310 710 7 17 59
136 115 265 55 129 109 253 119 275 10 22 92 209 181 415 89 206 163 376 165
377 2 3 59 -142 227 -577 44 -113 84 -214 89 -225 5 -11 47 -119 94 -240 47
-121 90 -229 95 -240 5 -11 28 -69 51 -130 23 -60 50 -128 59 -150 10 -22 38
-89 63 -150 76 -187 169 -408 178 -424 9 -18 38 -84 79 -181 32 -75 241 -551
275 -625 12 -27 32 -72 45 -100 42 -93 82 -179 157 -335 41 -85 94 -202 118
-260 46 -112 246 -504 323 -633 78 -129 84 -139 154 -235 517 -703 1253 -1147
2198 -1328 23 -4 94 -17 166 -29 53 -8 107 -15 174 -21 36 -3 76 -7 90 -9 158
-26 773 -26 980 0 19 2 57 6 84 9 636 72 1260 308 1773 673 205 145 447 353
441 379 -2 7 -199 212 -438 455 -239 243 -446 453 -459 466 -26 27 -25 28 -96
-41 -161 -157 -476 -355 -715 -450 -52 -21 -104 -42 -115 -47 -96 -40 -408
-124 -503 -135 -32 -3 -59 -8 -62 -9 -33 -19 -529 -28 -702 -12 -102 9 -337
46 -386 61 -9 3 -28 7 -42 10 -14 3 -70 18 -125 34 -728 215 -1240 720 -1490
1466 -58 175 -94 340 -120 554 -20 159 -26 486 -12 616 40 367 123 664 268
955 54 109 144 263 191 326 117 157 298 348 423 447 180 142 378 253 610 343
107 42 327 105 417 120 18 3 40 8 48 10 8 2 40 7 70 10 30 3 62 7 70 10 100
26 657 26 794 -1 12 -2 41 -7 66 -10 25 -3 53 -7 62 -10 9 -3 25 -6 35 -8 405
-79 802 -272 1113 -541 75 -65 109 -88 116 -81 6 6 109 106 229 221 120 116
286 276 369 356 83 80 187 180 231 222 l80 77 -50 46 c-126 116 -175 160 -265
231 -8 6 -40 31 -70 55 -30 24 -84 64 -120 89 -36 24 -67 46 -70 49 -5 5 -44
32 -81 55 -351 219 -701 374 -1060 469 -110 29 -319 72 -394 81 -27 4 -61 8
-75 11 -14 2 -52 7 -85 10 -33 3 -76 8 -95 11 -41 5 -586 14 -591 8z"/>
</g>
</svg>
