<svg id="Layer_1" data-name="Layer 1" xmlns="http://www.w3.org/2000/svg" viewBox="0 0 200 146.805" width="100" height="146.805"><defs><style>.cls-1 {
        fill: #2a2e30;
      }

      .cls-1, .cls-2, .cls-3 {
        stroke-width: 0px;
      }

      .cls-2 {
        fill: #38bdf8;
      }

      .cls-3 {
        fill: #fff;
        opacity: 0;
      }</style></defs><path class="cls-3" d="M145.617 146.805H0V0h200v146.805zM96.608 50.575c-4.285 -9.498 -8.572 -18.994 -12.844 -28.498 -0.196 -0.435 -0.44 -0.544 -0.895 -0.544 -7.033 0.015 -14.064 0.015 -21.097 0 -0.502 0 -0.771 0.117 -0.994 0.618 -15.131 33.903 -30.279 67.798 -45.425 101.694 -0.954 2.134 -1.9 4.27 -2.865 6.437h78.71V111.862h-48.247c9.741 -22.374 19.444 -44.657 29.169 -66.994 0.089 0.187 0.156 0.309 0.207 0.438 1.7 4.345 3.409 8.685 5.094 13.034 5.235 13.508 10.906 26.829 17.223 39.99 0.895 1.896 1.73 3.822 2.698 5.679 1.116 2.14 2.251 4.279 3.55 6.309 2.319 3.626 5.174 6.823 8.446 9.615 2.951 2.52 6.169 4.658 9.636 6.429 3.796 1.938 7.747 3.455 11.9 4.385 2.701 0.605 5.438 1.076 8.178 1.484 2.031 0.303 4.092 0.553 6.141 0.571 3.205 0.027 6.415 -0.091 9.614 -0.291 1.978 -0.123 3.954 -0.44 5.906 -0.801 4.153 -0.767 8.235 -1.834 12.071 -3.634 2.655 -1.247 5.321 -2.519 7.81 -4.061 2.406 -1.49 4.606 -3.315 6.857 -5.045 0.853 -0.655 1.597 -1.452 2.431 -2.22 -4.652 -4.733 -9.247 -9.406 -13.868 -14.105 -0.917 0.817 -1.758 1.654 -2.685 2.377 -3.316 2.591 -6.952 4.606 -10.92 6.039 -3.55 1.281 -7.187 2.22 -10.949 2.421 -3.566 0.192 -7.137 0.07 -10.688 -0.526 -3.545 -0.596 -6.984 -1.516 -10.232 -3.045 -4.26 -2.004 -7.89 -4.847 -10.905 -8.477 -2.489 -2.996 -4.349 -6.34 -5.692 -9.981 -1.508 -4.086 -2.322 -8.305 -2.55 -12.66 -0.214 -4.088 0.091 -8.107 1.062 -12.085 1.869 -7.655 5.526 -14.232 11.596 -19.364 2.886 -2.44 6.134 -4.253 9.661 -5.6 4.923 -1.881 10.061 -2.435 15.272 -2.501 1.296 -0.016 2.593 0.202 3.892 0.272 2.755 0.147 5.419 0.77 8.033 1.596 5.076 1.605 9.582 4.218 13.487 7.841 0.475 0.441 0.728 0.358 1.135 -0.048 1.419 -1.412 2.872 -2.788 4.311 -4.178 2.043 -1.976 4.105 -3.936 6.119 -5.944 0.851 -0.847 1.603 -1.795 2.431 -2.733 -1.171 -1.045 -2.474 -2.273 -3.847 -3.421 -2.744 -2.294 -5.678 -4.337 -8.819 -6.045 -4.588 -2.493 -9.407 -4.382 -14.53 -5.533 -4.048 -0.911 -8.129 -1.361 -12.251 -1.406 -2.676 -0.03 -5.367 0.155 -8.031 0.432 -2.535 0.263 -5.068 0.658 -7.559 1.195 -6.458 1.388 -12.464 3.9 -18 7.523 -3.857 2.523 -7.264 5.55 -10.305 9.004 -2.162 2.458 -4.082 5.089 -5.713 7.923 -0.936 1.626 -1.789 3.3 -2.733 4.85Z"/><path class="cls-2" d="M96.661 50.678c0.89 -1.652 1.743 -3.327 2.679 -4.952 1.632 -2.834 3.551 -5.467 5.713 -7.923 3.04 -3.455 6.447 -6.481 10.305 -9.004 5.538 -3.623 11.542 -6.135 18 -7.523 2.492 -0.535 5.025 -0.93 7.559 -1.195 2.664 -0.276 5.355 -0.461 8.031 -0.432 4.12 0.045 8.204 0.495 12.251 1.406 5.123 1.153 9.942 3.04 14.53 5.533 3.141 1.707 6.074 3.75 8.819 6.045 1.371 1.147 2.676 2.376 3.847 3.421 -0.829 0.938 -1.579 1.884 -2.431 2.733 -2.015 2.006 -4.076 3.966 -6.119 5.944 -1.438 1.391 -2.893 2.767 -4.311 4.178 -0.409 0.406 -0.661 0.489 -1.135 0.048 -3.903 -3.624 -8.412 -6.236 -13.487 -7.841 -2.614 -0.826 -5.278 -1.447 -8.033 -1.596 -1.299 -0.07 -2.596 -0.288 -3.892 -0.272 -5.212 0.065 -10.349 0.62 -15.272 2.501 -3.526 1.348 -6.774 3.16 -9.661 5.6 -6.07 5.134 -9.727 11.71 -11.596 19.364 -0.972 3.978 -1.276 7.996 -1.062 12.085 0.227 4.355 1.042 8.575 2.55 12.66 1.343 3.64 3.204 6.985 5.692 9.981 3.016 3.63 6.645 6.473 10.905 8.477 3.248 1.529 6.686 2.449 10.232 3.045 3.551 0.596 7.122 0.716 10.688 0.526 3.762 -0.202 7.4 -1.14 10.949 -2.421 3.967 -1.432 7.603 -3.449 10.92 -6.039 0.927 -0.725 1.768 -1.56 2.685 -2.377 4.623 4.701 9.215 9.373 13.868 14.105 -0.834 0.768 -1.578 1.565 -2.431 2.22 -2.251 1.728 -4.453 3.554 -6.857 5.045 -2.487 1.541 -5.153 2.814 -7.81 4.061 -3.835 1.801 -7.918 2.866 -12.071 3.634 -1.952 0.361 -3.927 0.678 -5.906 0.801 -3.199 0.201 -6.41 0.318 -9.614 0.291 -2.049 -0.016 -4.11 -0.267 -6.141 -0.571 -2.74 -0.409 -5.475 -0.88 -8.178 -1.484 -4.153 -0.929 -8.104 -2.446 -11.9 -4.385 -3.468 -1.77 -6.685 -3.909 -9.636 -6.429 -3.272 -2.793 -6.125 -5.991 -8.446 -9.615 -1.299 -2.03 -2.435 -4.169 -3.55 -6.309 -0.969 -1.857 -1.804 -3.783 -2.697 -5.798 -0.025 -0.312 -0.049 -0.508 -0.08 -0.703 -0.315 -1.949 -0.753 -3.89 -0.923 -5.851 -0.373 -4.308 -0.684 -8.623 -0.886 -12.941 -0.331 -7.076 0.312 -14.077 1.993 -20.967 0.579 -2.371 1.269 -4.718 1.908 -7.074Z"/><path class="cls-1" d="M96.634 50.626c-0.614 2.409 -1.303 4.753 -1.883 7.126 -1.682 6.889 -2.324 13.89 -1.993 20.967 0.202 4.318 0.513 8.634 0.886 12.941 0.169 1.963 0.608 3.902 0.923 5.851 0.031 0.195 0.055 0.389 0.071 0.648 -6.309 -12.987 -11.981 -26.308 -17.215 -39.816 -1.685 -4.349 -3.394 -8.691 -5.094 -13.034 -0.051 -0.129 -0.119 -0.253 -0.207 -0.438 -9.727 22.337 -19.428 44.62 -29.169 66.994h48.247v18.421H12.489c0.964 -2.166 1.912 -4.303 2.865 -6.437 15.146 -33.896 30.294 -67.79 45.425 -101.694 0.223 -0.501 0.492 -0.618 0.994 -0.618 7.033 0.015 14.064 0.015 21.097 0 0.455 0 0.698 0.108 0.895 0.544 4.272 9.504 8.56 19 12.871 28.548Z"/></svg>